<svg width="64" height="64" viewBox="0 0 64 64" fill="none" xmlns="http://www.w3.org/2000/svg">
<g clip-path="url(#clip0_2004_3)">
<rect width="64" height="64" fill="white"/>
<rect width="64" height="64" rx="3" fill="#FBFBFB"/>
<path d="M17.5 10.5H14.5V29.5V30L16 21.5H25.5H26V18.5V18H17M17.5 10.5H29.5V13.5H15V29.5H17.5V14V10.5ZM34.5 10V10.5M34.5 29.5V30M34.5 29.5H45.5M34.5 29.5V10.5M46 29.5H45.5M45.5 29.5V26.5M45.5 26.5V26M45.5 26.5H37.5M37.5 26.5H37M37.5 26.5V14V13.5H45.5M46 13.5H45.5M45.5 13.5V10.5M45.5 10V10.5M45.5 10.5H34.5M46.5 14V14.5M46.5 26V25.5M46.5 25.5H49.5M46.5 25.5V14.5M50 25.5H49.5M49.5 25.5V14.5M49.5 14V14.5M49.5 14.5H46.5M18.5 34V34.5M18.5 38V37.5M18.5 37.5H25.5M18.5 37.5V34.5M26 37.5H25.5M25.5 37.5V34.5M25.5 34V34.5M25.5 34.5H18.5M14.5 38V38.5M14.5 54V53.5M14.5 53.5H17.5M14.5 53.5V38.5M18 53.5H17.5M17.5 53.5V45.5M17.5 38V38.5M17.5 38.5H14.5M17.5 38.5V42.5M17.5 42.5H29.5M17.5 42.5V45.5M30 42.5H29.5M29.5 42.5V40.5M29.5 38V38.5M29.5 38.5H26.5M29.5 38.5V40.5M26 38.5H26.5M26.5 38.5V45.5M26.5 54V53.5M26.5 53.5H29.5M26.5 53.5V45.5M30 53.5H29.5M29.5 53.5V40.5M17.5 45.5H26.5M34.5 34V34.5M34.5 38V37.5M34.5 37.5H53.5M34.5 37.5V34.5M54 37.5H53.5M53.5 37.5V34.5M53.5 34V34.5M53.5 34.5H34.5M42.5 54V53.5M42.5 53.5V38L45.5 36V53.5M42.5 53.5H45.5M46 53.5H45.5" stroke="#587CE9"/>
<path d="M21.9999 11.4374C22.1985 11.4374 22.9539 11.4432 22.368 11.4965C21.9304 11.5363 21.4735 11.4999 21.0347 11.4999C20.3911 11.4999 18.4606 11.4999 19.1041 11.4999C19.2661 11.4999 19.4282 11.4999 19.5902 11.4999C20.2145 11.4999 19.4271 11.6667 19.2152 11.7013C18.9669 11.742 18.724 11.8499 18.4756 11.8715C18.3368 11.8836 18.1569 11.8363 18.0312 11.9062C17.8085 12.0299 17.3604 11.9374 17.1111 11.9374C16.7928 11.9374 16.4745 11.9374 16.1562 11.9374C15.9279 11.9374 15.7158 11.8749 15.4999 11.8749C15.4037 11.8749 14.7667 11.9276 14.9722 11.7222C15.3805 11.3139 17.2163 11.2499 16.6388 11.2499C16.1464 11.2499 15.6671 11.3124 15.1736 11.3124C14.87 11.3124 14.8515 11.5021 14.8784 11.7847C14.9628 12.6704 15.1337 13.5338 15.4722 14.3611C15.5469 14.5438 15.6874 15.0996 15.6874 15.0868C15.6874 14.7087 15.9001 12.4088 16.6493 13.434C16.7816 13.615 16.943 14.2843 16.7013 13.7361C16.5863 13.4749 16.5404 13.1896 16.3437 12.9722C16.1994 12.8127 16.037 12.7329 15.8819 12.5972C15.7972 12.523 15.4769 12.4662 15.6388 12.2638C15.7434 12.1331 16.0643 12.1377 16.2187 12.1215C16.6415 12.077 17.0547 12.0624 17.4861 12.0624C17.9849 12.0624 16.9969 12.3332 16.8715 12.3749C16.4888 12.5025 15.2841 12.6249 15.6874 12.6249C16.1851 12.6249 16.6828 12.6249 17.1805 12.6249C17.222 12.6249 17.5095 12.6471 17.4374 12.6111C17.3225 12.5536 17.1751 12.4468 17.0486 12.4374C16.8362 12.4217 16.0773 12.3124 16.6909 12.3124C17.2685 12.3124 17.846 12.3124 18.4236 12.3124C18.6795 12.3124 17.9102 11.927 17.7847 11.8472C17.5275 11.6836 16.9168 11.6308 16.8159 11.2777C16.7923 11.1949 16.678 11.0804 16.6874 10.9999C16.7005 10.8892 17.0969 10.9374 17.1874 10.9374C18.0451 10.9374 18.9027 10.9374 19.7604 10.9374C21.0393 10.9374 22.3182 10.9374 23.5972 10.9374C24.5893 10.9374 25.6048 10.873 26.5763 11.0763C26.8519 11.134 27.1141 11.1361 27.3784 11.2187C27.4668 11.2463 27.7247 11.2838 27.7847 11.3402C27.8901 11.4395 27.1521 11.4815 27.0972 11.4861C25.3002 11.6358 23.4827 11.6249 21.6805 11.6249C21.4135 11.6249 21.1417 11.6101 20.8749 11.6249C20.6987 11.6347 21.27 11.7395 21.3124 11.7499C21.8384 11.8796 22.3541 12.0278 22.8993 12.059C23.084 12.0695 23.8108 12.1874 23.2361 12.1874C21.5925 12.1874 19.949 12.1874 18.3055 12.1874C18.1554 12.1874 17.9342 12.1482 17.7847 12.1909C17.6844 12.2196 17.6224 12.2984 17.4999 12.3159C17.3978 12.3305 17.2152 12.4374 17.2152 12.4374C17.2152 12.4374 17.5216 12.4841 17.6736 12.5138C19.4628 12.8639 21.2955 12.7287 23.1111 12.6874C24.0375 12.6664 24.9508 12.5624 25.8888 12.5624C26.8634 12.5624 27.8379 12.5624 28.8124 12.5624C29.027 12.5624 29.1807 12.4556 29.0277 12.2152C28.9116 12.0328 28.8878 11.6216 28.8749 11.4027C28.852 11.0133 28.8124 11.446 28.8124 11.5937C28.8124 11.8662 28.6679 11.8422 28.4374 11.9513C28.0607 12.1298 27.5735 12.0861 27.1666 12.1562C26.5319 12.2656 25.8318 12.1874 25.1874 12.1874C24.7523 12.1874 24.3171 12.1874 23.8819 12.1874C23.6665 12.1874 23.0907 12.437 23.243 12.2847C23.3857 12.142 23.8048 12.0973 23.9861 12.0694C24.4485 11.9982 24.9032 11.9024 25.3645 11.8159C25.7998 11.7343 26.2583 11.7183 26.6874 11.6111C26.9514 11.5451 27.1548 11.4374 27.4374 11.4374C27.6612 11.4374 27.9798 11.3367 28.1597 11.2222C28.274 11.1494 28.9132 10.9496 28.4374 11.1874" stroke="#587CE9"/>
<path d="M27.75 11H28.875" stroke="#587CE9"/>
<path d="M15.5625 14.3124C15.5909 14.9093 15.711 15.5013 15.7361 16.104C15.783 17.2291 15.75 18.3598 15.75 19.486C15.75 20.0068 15.75 20.5277 15.75 21.0485C15.75 21.2014 15.7222 21.6099 15.8472 21.2707C16.239 20.2073 16.2487 18.9617 16.3438 17.8402C16.4329 16.7883 16.375 15.715 16.375 14.6596C16.375 14.516 16.3136 14.1068 16.3889 14.229C16.5554 14.4996 16.4375 15.1107 16.4375 15.4235C16.4375 16.2209 16.4375 17.0184 16.4375 17.8159C16.4375 18.0427 16.4375 18.2696 16.4375 18.4964C16.4375 18.6511 16.4375 18.8284 16.4375 18.5485C16.4375 17.4906 16.4375 16.4328 16.4375 15.3749C16.4375 15.0874 16.3692 14.6725 16.441 14.3853C16.513 14.097 16.6571 14.947 16.684 15.2429C16.7098 15.5261 16.8083 15.8077 16.8125 16.0902C16.8229 16.7888 16.8677 17.544 16.809 18.2186C16.7644 18.7324 16.5625 19.2346 16.5625 19.7499C16.5625 19.9285 16.4369 20.5288 16.2361 20.1874C16.1408 20.0254 15.5175 19.7573 15.7812 19.4409C16.1844 18.9571 17.0753 19.1249 17.6389 19.1249C20.0006 19.1249 22.3448 19.2499 24.7014 19.2499C24.7749 19.2499 25.5047 19.2252 25.4861 19.2013C25.3253 18.9945 25.4591 18.8124 25.1562 18.8124C23.9339 18.8124 22.718 18.7499 21.4931 18.7499C20.6682 18.7499 19.8563 18.6874 19.0347 18.6874C18.7315 18.6874 18.4282 18.6874 18.125 18.6874C17.7282 18.6874 17.6875 18.6799 17.6875 19.0902C17.6875 19.383 17.6875 19.6758 17.6875 19.9686C17.6875 20.3071 17.7868 20.3821 18.1528 20.2985C19.1415 20.0725 20.1883 20.345 21.1736 20.1388C21.9169 19.9832 22.6615 19.9999 23.434 19.9999C23.9873 19.9999 24.5405 19.9999 25.0938 19.9999C25.4422 19.9999 25.9375 19.8261 25.9375 20.2499C25.9375 20.8638 25.5715 20.7655 25.1215 20.9061C24.5377 21.0886 23.7997 20.8969 23.1875 20.986C22.5164 21.0836 21.7734 20.9999 21.0938 20.9999C20.4395 20.9999 19.7953 20.9752 19.1424 20.9409C18.4054 20.9021 17.6544 21.0034 16.9236 20.8888C16.7983 20.8691 15.5911 20.7893 15.9514 20.6735C16.3522 20.5447 16.7689 20.5088 17.1806 20.4027C17.7367 20.2593 18.3088 20.1301 18.8785 20.0589C19.7967 19.9441 20.6932 19.9374 21.6215 19.9374C21.8344 19.9374 22.0361 19.8749 22.25 19.8749C22.4994 19.8749 21.7177 19.8749 21.6528 19.8749C20.2303 19.8749 18.8079 19.8749 17.3854 19.8749C17.0754 19.8749 17.3485 19.8749 17.5035 19.8749C17.7847 19.8749 18.066 19.8749 18.3472 19.8749C18.8356 19.8749 19.3241 19.8749 19.8125 19.8749C20.2331 19.8749 18.9908 20.0554 18.5833 20.1596C17.9439 20.3232 17.3392 20.5509 16.6875 20.6839C16.4893 20.7244 16.0632 20.7561 15.9097 20.9096C15.7391 21.0803 15.9069 21.8102 15.8611 22.0277C15.722 22.6885 15.794 23.3053 15.8125 23.9721C15.8182 24.178 15.9184 24.4149 15.9514 24.6249C15.9766 24.7855 15.9594 24.9984 16.0035 25.1527C16.0097 25.1744 16.1737 24.5862 16.1875 24.4964C16.2928 23.8119 16.4375 23.1613 16.4375 22.4652C16.4375 22.0035 16.5652 21.3061 16.434 20.8471C16.3843 20.673 16.2844 21.0241 16.2778 21.0346C16.1517 21.2327 16.1114 21.4675 16.0556 21.6909C15.9207 22.2303 15.8253 22.8425 15.8125 23.4165C15.7973 24.0984 15.8125 24.783 15.8125 25.4652C15.8125 26.151 15.75 26.8161 15.75 27.4999C15.75 27.9379 15.6875 29.2504 15.6875 28.8124" stroke="#587CE9"/>
<path d="M15.6875 29C15.6751 29.0988 15.3973 28.9007 15.5729 28.7778C15.7897 28.626 16.2744 28.4375 16.5625 28.4375C16.7715 28.4375 16.9375 28.3989 16.9375 28.6562C16.9375 28.8265 16.674 28.9118 16.4965 28.934C16.416 28.9441 15.812 28.9698 15.8264 28.9514C15.9798 28.7541 16.191 28.6875 16.4375 28.6875C16.7009 28.6875 16.6875 28.6453 16.6875 28.3924C16.6875 27.8636 16.7621 27.384 16.809 26.8681C16.9506 25.3104 16.875 23.7464 16.875 22.2014C16.875 22.0314 16.8027 21.5652 16.9062 21.441C16.9596 21.3769 16.9375 21.2907 16.9375 21.4375C16.9375 21.6678 16.9375 21.8981 16.9375 22.1285C16.9375 22.7676 16.8864 23.4363 16.7639 24.0625C16.661 24.588 16.7796 25.1634 16.6389 25.6736C16.6019 25.8077 16.693 26.3125 16.4687 26.3125C16.1336 26.3125 16.1791 26.0148 16.1875 25.7222C16.1894 25.6536 16.3895 25.0664 16.434 25.2222C16.5141 25.5026 16.5625 25.708 16.5625 26.0035C16.5625 26.6376 16.5 25.5267 16.5 25.375C16.5 24.8333 16.5 24.2917 16.5 23.75C16.5 23.368 16.6376 22.9147 16.6944 22.5312C16.7948 21.8539 17.128 21.081 17.5034 20.5035C17.7027 20.1969 17.9163 19.7878 18.25 19.6111C18.5294 19.4632 18.6811 19.4375 19.0069 19.4375C19.4972 19.4375 20.1085 19.593 20.5903 19.7014C21.2203 19.8432 21.8847 19.8852 22.5 20.0625C22.8322 20.1582 23.1995 20.0972 23.5278 20.191C23.7026 20.2409 23.3298 20.3568 23.3125 20.3611C23.1096 20.4118 22.9316 20.4375 22.7222 20.4375C22.0975 20.4375 21.4969 20.375 20.875 20.375" stroke="#587CE9"/>
<path d="M16.625 27.1876C16.625 26.9189 16.6933 26.5555 16.6111 26.2987C16.5704 26.1714 16.5625 26.7169 16.5625 26.8126C16.5625 26.9059 16.5808 27.4027 16.5486 27.2848C16.4772 27.0231 16.3125 26.7748 16.3125 26.5001" stroke="#587CE9"/>
<path d="M41.5 12H41M41 12H39L38.5 11.5H41V12ZM45.5 12H36M35 12H36M36 12V28M36 28V29L45 28H44H36ZM48 25.5V22.875M48 22.875V20.25V15V22.875ZM18.5 36H21.75M25 36H21.75M21.75 36H25.3125" stroke="#587CE9" stroke-width="2"/>
<path d="M28 39V53.5L27.5 44H27M16 39V43.5M16 53.5V52.5V43.5M16 43.5V44H27M16 43.5L27 44" stroke="#587CE9" stroke-width="2"/>
<path d="M35 36H44M53 36H44M44 36V53" stroke="#587CE9" stroke-width="2"/>
<path d="M64 53.5H62V54.5H58.5H58V55.5M58 55.5V56M58 55.5H53V56.5M53 57V56.5M53 56.5H49V57.5M49 58V57.5M49 57.5H45V58.25V58.625M45 59V58.625M45 58.625H41V59.5M41 59.5V60M41 59.5H36V60.5M36 60.5V61M36 60.5H13" stroke="#DB4242"/>
<path d="M0.5 3.5L2.5 5H3.5V7H4.5V8.5V10H5.5V13H6.5V18.5H7.5V39V44.5H8V48H9V50.5H10V54H11V57H11.5V59H13V60.5V61" stroke="#DB4242"/>
</g>
<defs>
<clipPath id="clip0_2004_3">
<rect width="64" height="64" fill="white"/>
</clipPath>
</defs>
</svg>
